<svg width="1200" height="1200" viewBox="0 0 1200 1200" fill="none" xmlns="http://www.w3.org/2000/svg">
<path d="M946.385 0H253.61C113.544 0 0 113.546 0 253.613V946.387C0 1086.45 113.544 1200 253.61 1200H946.385C1086.45 1200 1200 1086.45 1200 946.387V253.613C1200 113.546 1086.45 0 946.385 0Z" fill="url(#paint0_linear_11_52)"/>
<path d="M423.434 266.519C314.096 266.519 224.989 355.62 224.989 464.964C224.989 540.911 272.994 620.228 340.749 699.24C408.504 778.257 496.793 857.015 586.05 923.87L599.829 933.517L613.612 923.87C643.736 901.242 673.866 876.986 703.187 852.207C707.132 848.592 711.576 844.87 715.588 841.184L714.201 838.449L675.612 724.069L659.077 758.518L635.649 806.755C631.774 814.57 625.667 821.06 618.103 825.405C610.539 829.749 601.858 831.753 593.155 831.163C584.452 830.573 576.118 827.416 569.209 822.09C562.301 816.764 557.126 809.508 554.341 801.242L537.807 750.251L524.023 707.533C523.111 707.561 522.198 707.561 521.286 707.533H511.641H467.54C428.855 708.061 401.393 680.072 401.393 641.384C401.393 602.691 428.855 574.661 467.54 575.234H484.079L508.885 551.804L533.691 525.622C538.959 520.291 545.5 516.39 552.693 514.288C559.886 512.185 567.494 511.951 574.803 513.606C582.112 515.261 588.878 518.751 594.464 523.747C600.05 528.743 604.275 535.081 606.732 542.161L612.244 558.698L628.783 524.242L652.206 476.012C655.273 469.489 659.889 463.818 665.655 459.493C671.421 455.169 678.159 452.323 685.28 451.206C695.606 449.74 706.122 451.981 714.952 457.532C723.782 463.082 730.358 471.583 733.514 481.523L750.053 532.511L788.638 646.895L805.177 613.822V612.453L810.689 601.428C814.131 593.686 819.733 587.101 826.82 582.458C833.907 577.815 842.179 575.31 850.651 575.246H864.435H944.36C944.848 574.365 945.26 573.394 945.747 572.513H947.134C964.808 536.325 974.581 500.04 974.701 465.021C975.076 355.589 885.59 266.573 776.251 266.573C698.255 266.573 632.346 312.527 599.856 378.199C567.258 312.844 501.229 266.573 423.462 266.573L423.434 266.519ZM692.164 495.281L668.732 543.514L603.963 673.054L576.401 590.368L565.373 555.919L540.567 582.101L503.36 619.31H467.531C464.608 619.267 461.706 619.807 458.993 620.896C456.281 621.985 453.811 623.603 451.729 625.655C449.647 627.707 447.996 630.152 446.867 632.849C445.739 635.545 445.155 638.438 445.155 641.361C445.155 644.284 445.739 647.176 446.867 649.873C447.996 652.569 449.647 655.015 451.729 657.067C453.811 659.118 456.281 660.736 458.993 661.825C461.706 662.914 464.608 663.454 467.531 663.411H511.632H521.277L526.793 656.517L546.083 637.225L579.156 736.447L595.695 787.44L619.124 739.203L683.893 609.663L755.551 824.647L772.09 875.637L795.518 827.403L876.826 663.411H952.623C955.546 663.454 958.448 662.914 961.16 661.825C963.873 660.736 966.343 659.118 968.425 657.067C970.507 655.015 972.158 652.569 973.286 649.873C974.415 647.176 974.998 644.284 974.998 641.361C974.998 638.438 974.415 635.545 973.286 632.849C972.158 630.152 970.507 627.707 968.425 625.655C966.343 623.603 963.873 621.985 961.16 620.896C958.448 619.807 955.546 619.267 952.623 619.31H864.421H850.642L845.131 631.711L780.357 761.254L708.699 546.269L692.164 495.281Z" fill="white"/>
<defs>
<linearGradient id="paint0_linear_11_52" x1="160.377" y1="90.3628" x2="1103.09" y2="1114.69" gradientUnits="userSpaceOnUse">
<stop stop-color="#24F7BC"/>
<stop offset="1" stop-color="#24C4FC"/>
</linearGradient>
</defs>
</svg>
